<?xml version="1.0" encoding="UTF-8" standalone="no"?>
<!-- Created with Inkscape (http://www.inkscape.org/) -->
<svg
   xmlns:dc="http://purl.org/dc/elements/1.1/"
   xmlns:cc="http://web.resource.org/cc/"
   xmlns:rdf="http://www.w3.org/1999/02/22-rdf-syntax-ns#"
   xmlns:svg="http://www.w3.org/2000/svg"
   xmlns="http://www.w3.org/2000/svg"
   xmlns:sodipodi="http://sodipodi.sourceforge.net/DTD/sodipodi-0.dtd"
   xmlns:inkscape="http://www.inkscape.org/namespaces/inkscape"
   width="744.09448819"
   height="1052.3622047"
   id="svg2"
   sodipodi:version="0.32"
   inkscape:version="0.45pre1"
   sodipodi:docbase="C:\wamp\www\doomavideo\images"
   sodipodi:docname="tabs.svg"
   inkscape:output_extension="org.inkscape.output.svg.inkscape"
   inkscape:export-filename="C:\wamp\www\doomavideo\images\tabs.gif"
   inkscape:export-xdpi="90"
   inkscape:export-ydpi="90"
   sodipodi:modified="true">
  <defs
     id="defs4" />
  <sodipodi:namedview
     id="base"
     pagecolor="#ffffff"
     bordercolor="#666666"
     borderopacity="1.0"
     gridtolerance="10000"
     guidetolerance="10"
     objecttolerance="10"
     inkscape:pageopacity="0.0"
     inkscape:pageshadow="2"
     inkscape:zoom="2"
     inkscape:cx="214.21341"
     inkscape:cy="60.55086"
     inkscape:document-units="px"
     inkscape:current-layer="layer1"
     showguides="true"
     inkscape:guide-bbox="true"
     inkscape:window-width="1080"
     inkscape:window-height="575"
     inkscape:window-x="177"
     inkscape:window-y="383">
    <sodipodi:guide
       orientation="horizontal"
       position="125"
       id="guide2178" />
    <sodipodi:guide
       orientation="horizontal"
       position="60.5"
       id="guide2180" />
  </sodipodi:namedview>
  <metadata
     id="metadata7">
    <rdf:RDF>
      <cc:Work
         rdf:about="">
        <dc:format>image/svg+xml</dc:format>
        <dc:type
           rdf:resource="http://purl.org/dc/dcmitype/StillImage" />
      </cc:Work>
    </rdf:RDF>
  </metadata>
  <g
     inkscape:label="Layer 1"
     inkscape:groupmode="layer"
     id="layer1">
    <path
       style="opacity:1;fill:#721c22;fill-opacity:1;fill-rule:evenodd;stroke:#000000;stroke-width:0.96269387;stroke-linejoin:round;stroke-miterlimit:4;stroke-dasharray:none;stroke-dashoffset:0;stroke-opacity:1"
       d="M 20.5 992.84375 C 20.275771 992.84375 20.066161 992.86823 19.84375 992.875 C 18.738346 992.90975 17.645854 993.02439 16.59375 993.21875 C 16.232214 993.28554 15.885406 993.35288 15.53125 993.4375 C 15.206112 993.51499 14.880981 993.59541 14.5625 993.6875 C 13.937699 993.86816 13.315478 994.07794 12.71875 994.3125 C 12.159103 994.53248 11.625937 994.76645 11.09375 995.03125 C 11.052163 995.052 11.01016 995.07273 10.96875 995.09375 C 10.500376 995.33079 10.038539 995.60494 9.59375 995.875 C 9.2990836 996.05468 9.0023398 996.24394 8.71875 996.4375 C 8.4097669 996.64773 8.1077149 996.86769 7.8125 997.09375 C 7.7411881 997.14844 7.6642317 997.19441 7.59375 997.25 C 7.1575896 997.59343 6.7468381 997.96712 6.34375 998.34375 C 5.8933478 998.76459 5.4685388 999.19682 5.0625 999.65625 C 4.6496135 1000.1234 4.2698839 1000.6211 3.90625 1001.125 C 3.5497265 1001.6191 3.2121837 1002.1299 2.90625 1002.6563 C 2.2828319 1003.7288 1.7680851 1004.8436 1.375 1006.0313 C 1.2052885 1006.544 1.0606498 1007.0629 0.9375 1007.5938 C 0.8471892 1007.982 0.78314765 1008.353 0.71875 1008.75 C 0.66853639 1009.0585 0.62784975 1009.3742 0.59375 1009.6875 C 0.55865013 1010.01 0.48634471 1010.329 0.46875 1010.6563 L 0.46875 1011.625 L 0.46875 1033.0938 L 0.46875 1034.0625 C 0.52045196 1035.0241 0.67575155 1035.9576 0.875 1036.875 C 0.87929073 1036.8949 0.87064254 1036.9176 0.875 1036.9375 C 1.0069437 1037.5351 1.1843263 1038.1125 1.375 1038.6875 C 1.5694805 1039.274 1.8101668 1039.8462 2.0625 1040.4063 C 2.3153984 1040.9675 2.5985357 1041.5309 2.90625 1042.0625 C 3.2094805 1042.5863 3.5217207 1043.1017 3.875 1043.5938 C 3.8833425 1043.6054 3.8978804 1043.6134 3.90625 1043.625 C 4.2372765 1044.0838 4.5967992 1044.509 4.96875 1044.9375 C 5.012571 1044.9881 5.0493785 1045.0436 5.09375 1045.0938 C 5.4373677 1045.4813 5.8121175 1045.8586 6.1875 1046.2188 C 6.256884 1046.2854 6.3045679 1046.3718 6.375 1046.4375 C 6.4177561 1046.4773 6.456862 1046.523 6.5 1046.5625 C 6.9034506 1046.9318 7.314349 1047.2573 7.75 1047.5938 C 8.2459804 1047.9766 8.7779739 1048.3501 9.3125 1048.6875 C 9.8523819 1049.0283 10.392964 1049.3338 10.96875 1049.625 C 10.989455 1049.6355 11.010501 1049.6458 11.03125 1049.6563 C 12.150022 1050.2173 13.328191 1050.6748 14.5625 1051.0313 C 15.14067 1051.1982 15.744263 1051.3504 16.34375 1051.4688 C 16.519324 1051.5034 16.697737 1051.5322 16.875 1051.5625 C 17.393368 1051.6512 17.905804 1051.7304 18.4375 1051.7813 C 18.499531 1051.7872 18.5628 1051.7758 18.625 1051.7813 C 19.072772 1051.8201 19.512759 1051.8639 19.96875 1051.875 L 20.53125 1051.875 L 100.46875 1051.875 L 679.46875 1051.875 C 690.57894 1051.875 699.53127 1043.5003 699.53125 1033.0938 L 699.53125 1011.625 C 699.53125 1001.2184 690.57891 992.84375 679.46875 992.84375 L 100.46875 992.84375 L 20.5 992.84375 z "
       id="rect2160"
       clip-path="none"
       inkscape:export-filename="C:\wamp\www\doomavideo\images\tabs.gif"
       inkscape:export-xdpi="90"
       inkscape:export-ydpi="90" />
    <rect
       style="opacity:1;fill:#721c22;fill-opacity:1;fill-rule:evenodd;stroke:#000000;stroke-width:0.97904515;stroke-linejoin:round;stroke-miterlimit:4;stroke-dasharray:none;stroke-dashoffset:0;stroke-opacity:1"
       id="rect2184"
       width="99.020958"
       height="59.020954"
       x="100.48952"
       y="992.35168"
       clip-path="none"
       inkscape:export-filename="C:\wamp\www\doomavideo\images\tabs.gif"
       inkscape:export-xdpi="90"
       inkscape:export-ydpi="90" />
    <rect
       style="opacity:1;fill:#721c22;fill-opacity:1;fill-rule:evenodd;stroke:#000000;stroke-width:0.97904515;stroke-linejoin:round;stroke-miterlimit:4;stroke-dasharray:none;stroke-dashoffset:0;stroke-opacity:1"
       id="rect2186"
       width="99.020958"
       height="59.020954"
       x="199.48946"
       y="992.85175"
       clip-path="none"
       inkscape:export-filename="C:\wamp\www\doomavideo\images\tabs.gif"
       inkscape:export-xdpi="90"
       inkscape:export-ydpi="90" />
    <rect
       style="opacity:1;fill:#721c22;fill-opacity:1;fill-rule:evenodd;stroke:#000000;stroke-width:0.97904515;stroke-linejoin:round;stroke-miterlimit:4;stroke-dasharray:none;stroke-dashoffset:0;stroke-opacity:1"
       id="rect2188"
       width="99.020958"
       height="59.020954"
       x="298.4895"
       y="992.85168"
       clip-path="none"
       inkscape:export-filename="C:\wamp\www\doomavideo\images\tabs.gif"
       inkscape:export-xdpi="90"
       inkscape:export-ydpi="90" />
    <rect
       style="opacity:1;fill:#721c22;fill-opacity:1;fill-rule:evenodd;stroke:#000000;stroke-width:0.97904515;stroke-linejoin:round;stroke-miterlimit:4;stroke-dasharray:none;stroke-dashoffset:0;stroke-opacity:1"
       id="rect2190"
       width="99.020958"
       height="59.020954"
       x="397.48953"
       y="992.85168"
       clip-path="none"
       inkscape:export-filename="C:\wamp\www\doomavideo\images\tabs.gif"
       inkscape:export-xdpi="90"
       inkscape:export-ydpi="90" />
    <rect
       style="opacity:1;fill:#721c22;fill-opacity:1;fill-rule:evenodd;stroke:#000000;stroke-width:0.97904515;stroke-linejoin:round;stroke-miterlimit:4;stroke-dasharray:none;stroke-dashoffset:0;stroke-opacity:1"
       id="rect2192"
       width="99.020958"
       height="59.020954"
       x="496.4895"
       y="992.85168"
       clip-path="none"
       inkscape:export-filename="C:\wamp\www\doomavideo\images\tabs.gif"
       inkscape:export-xdpi="90"
       inkscape:export-ydpi="90" />
    <text
       xml:space="preserve"
       style="font-size:12px;font-style:normal;font-weight:normal;line-height:125%;fill:#000000;fill-opacity:1;stroke:none;stroke-width:1px;stroke-linecap:butt;stroke-linejoin:miter;stroke-opacity:1;font-family:Bitstream Vera Sans"
       x="24.681641"
       y="1028.1278"
       id="text2220"
       sodipodi:linespacing="125%"
       clip-path="none"
       inkscape:export-filename="C:\wamp\www\doomavideo\images\tabs.gif"
       inkscape:export-xdpi="90"
       inkscape:export-ydpi="90"><tspan
         sodipodi:role="line"
         id="tspan2222"
         x="24.681641"
         y="1028.1278"
         style="font-size:20px;font-style:normal;font-variant:normal;font-weight:normal;font-stretch:normal;text-align:start;line-height:125%;writing-mode:lr-tb;text-anchor:start;font-family:Arial">home</tspan></text>
    <text
       xml:space="preserve"
       style="font-size:11.99998188px;font-style:normal;font-weight:normal;line-height:125%;fill:#000000;fill-opacity:1;stroke:none;stroke-width:1px;stroke-linecap:butt;stroke-linejoin:miter;stroke-opacity:1;font-family:Bitstream Vera Sans"
       x="103.2189"
       y="1028.1516"
       id="text2224"
       sodipodi:linespacing="125%"
       transform="scale(0.9999985,1.0000015)"
       clip-path="none"
       inkscape:export-filename="C:\wamp\www\doomavideo\images\tabs.gif"
       inkscape:export-xdpi="90"
       inkscape:export-ydpi="90"><tspan
         sodipodi:role="line"
         id="tspan2226"
         x="103.2189"
         y="1028.1516"
         style="font-size:20px;font-style:normal;font-variant:normal;font-weight:normal;font-stretch:normal;text-align:start;line-height:125%;writing-mode:lr-tb;text-anchor:start;font-family:Arial">categories</tspan></text>
    <path
       style="opacity:1;fill:#721c22;fill-opacity:1;fill-rule:evenodd;stroke:#000000;stroke-width:0.9626767;stroke-linejoin:round;stroke-miterlimit:4;stroke-dasharray:none;stroke-dashoffset:0;stroke-opacity:1"
       d="M 20.511867,932.84373 C 20.287645,932.84373 20.078042,932.86821 19.85564,932.87498 C 18.750281,932.90973 17.65782,933.02437 16.605757,933.21873 C 16.24423,933.28552 15.897444,933.35286 15.543296,933.43748 C 15.218168,933.51497 14.89305,933.59539 14.574581,933.68748 C 13.949803,933.86814 13.327606,934.07792 12.730897,934.31248 C 12.171268,934.53246 11.638127,934.76643 11.105956,935.03123 C 11.064367,935.05198 11.022369,935.07271 10.98096,935.09373 C 10.512607,935.33077 10.050784,935.60492 9.6060098,935.87498 C 9.3113504,936.05466 9.0146211,936.24392 8.7310413,936.43748 C 8.4220724,936.64771 8.1200233,936.86767 7.824824,937.09373 C 7.7535165,937.14842 7.6765593,937.19439 7.6060818,937.24998 C 7.1699376,937.59341 6.7592024,937.9671 6.3561269,938.34373 C 5.9057431,938.76457 5.4809483,939.1968 5.0749229,939.65623 C 4.6620479,940.12341 4.2823316,940.62111 3.9187147,941.12501 C 3.5622075,941.61911 3.2246697,942.12991 2.9187506,942.65631 C 2.2953531,943.72881 1.7806317,944.84361 1.3875558,946.03132 C 1.2178519,946.54402 1.0732171,947.06292 0.95007158,947.59382 C 0.85976484,947.98202 0.79572715,948.35302 0.73132946,948.75002 C 0.68112127,949.05852 0.64043274,949.37422 0.60633397,949.68752 C 0.57123523,950.01002 0.49892783,950.32902 0.48133846,950.65632 L 0.48133846,951.62502 L 0.48133846,973.09382 L 0.48133846,974.06252 C 0.53303661,975.02412 0.68833102,975.95762 0.88757384,976.87502 C 0.89186368,976.89492 0.88321399,976.91762 0.88757384,976.93752 C 1.0195091,977.53512 1.1968926,978.11252 1.3875558,978.68752 C 1.5820288,979.27402 1.8227102,979.84623 2.075031,980.40633 C 2.3279219,980.96753 2.6110517,981.53093 2.9187506,982.06253 C 3.2219698,982.58633 3.5341985,983.10173 3.8874658,983.59383 C 3.8958055,983.60543 3.910345,983.61343 3.9187147,983.62503 C 4.2497327,984.08383 4.6092398,984.50903 4.9811764,984.93753 C 5.0249948,984.98813 5.0618034,985.04363 5.1061718,985.09383 C 5.4497794,985.48133 5.824516,985.85863 6.1998824,986.21883 C 6.26926,986.28543 6.3169483,986.37183 6.3873757,986.43753 C 6.4301342,986.47733 6.4692327,986.52303 6.5123712,986.56253 C 6.9158067,986.93183 7.3266919,987.25733 7.7623262,987.59383 C 8.2582883,987.97663 8.7902592,988.35013 9.3247699,988.68753 C 9.8646305,989.02833 10.405191,989.33383 10.98096,989.62503 C 11.00166,989.63553 11.022709,989.64583 11.043458,989.65633 C 12.162188,990.21733 13.340315,990.67483 14.574581,991.03133 C 15.15273,991.19823 15.756299,991.35043 16.355766,991.46883 C 16.53133,991.50343 16.709744,991.53223 16.886997,991.56253 C 17.405349,991.65123 17.917761,991.73043 18.449442,991.78133 C 18.511469,991.78723 18.574737,991.77583 18.636935,991.78133 C 19.084689,991.82013 19.524663,991.86393 19.980636,991.87503 L 20.543116,991.87503 L 100.47774,991.87503 L 679.45689,991.87503 C 690.56668,991.87503 699.51868,983.50033 699.51866,973.09382 L 699.51866,951.62502 C 699.51866,941.21841 690.56665,932.84373 679.45689,932.84373 L 100.47774,932.84373 L 20.511867,932.84373 z "
       id="path2270"
       clip-path="none"
       inkscape:export-filename="C:\wamp\www\doomavideo\images\tabs.gif"
       inkscape:export-xdpi="90"
       inkscape:export-ydpi="90" />
    <rect
       style="opacity:0.8;fill:#721c22;fill-opacity:1;fill-rule:evenodd;stroke:#000000;stroke-width:0.97902769;stroke-linejoin:round;stroke-miterlimit:4;stroke-dasharray:none;stroke-dashoffset:0;stroke-opacity:1"
       id="rect2274"
       width="99.017387"
       height="59.020973"
       x="199.49487"
       y="932.85168"
       clip-path="none"
       inkscape:export-filename="C:\wamp\www\doomavideo\images\tabs.gif"
       inkscape:export-xdpi="90"
       inkscape:export-ydpi="90" />
    <rect
       style="opacity:1;fill:#721c22;fill-opacity:1;fill-rule:evenodd;stroke:#000000;stroke-width:0.97902769;stroke-linejoin:round;stroke-miterlimit:4;stroke-dasharray:none;stroke-dashoffset:0;stroke-opacity:1"
       id="rect2276"
       width="99.017387"
       height="59.020973"
       x="298.49136"
       y="932.85162"
       clip-path="none"
       inkscape:export-filename="C:\wamp\www\doomavideo\images\tabs.gif"
       inkscape:export-xdpi="90"
       inkscape:export-ydpi="90" />
    <rect
       style="opacity:1;fill:#721c22;fill-opacity:1;fill-rule:evenodd;stroke:#000000;stroke-width:0.97902769;stroke-linejoin:round;stroke-miterlimit:4;stroke-dasharray:none;stroke-dashoffset:0;stroke-opacity:1"
       id="rect2278"
       width="99.017387"
       height="59.020973"
       x="397.48782"
       y="932.85162"
       clip-path="none"
       inkscape:export-filename="C:\wamp\www\doomavideo\images\tabs.gif"
       inkscape:export-xdpi="90"
       inkscape:export-ydpi="90" />
    <rect
       style="opacity:1;fill:#721c22;fill-opacity:1;fill-rule:evenodd;stroke:#000000;stroke-width:0.97902769;stroke-linejoin:round;stroke-miterlimit:4;stroke-dasharray:none;stroke-dashoffset:0;stroke-opacity:1"
       id="rect2280"
       width="99.017387"
       height="59.020973"
       x="496.48422"
       y="932.85162"
       clip-path="none"
       inkscape:export-filename="C:\wamp\www\doomavideo\images\tabs.gif"
       inkscape:export-xdpi="90"
       inkscape:export-ydpi="90" />
    <text
       xml:space="preserve"
       style="font-size:11.99978542px;font-style:normal;font-weight:normal;line-height:125%;fill:#ffffff;fill-opacity:1;stroke:none;stroke-width:1px;stroke-linecap:butt;stroke-linejoin:miter;stroke-opacity:1;font-family:Bitstream Vera Sans"
       x="24.682133"
       y="968.11127"
       id="text2282"
       sodipodi:linespacing="125%"
       transform="scale(0.999982,1.000018)"
       clip-path="none"
       inkscape:export-filename="C:\wamp\www\doomavideo\images\tabs.gif"
       inkscape:export-xdpi="90"
       inkscape:export-ydpi="90"><tspan
         sodipodi:role="line"
         id="tspan2284"
         x="24.682133"
         y="968.11127"
         style="font-size:19.99964333px;font-style:normal;font-variant:normal;font-weight:normal;font-stretch:normal;text-align:start;line-height:125%;writing-mode:lr-tb;text-anchor:start;fill:#ffffff;font-family:Arial">home</tspan></text>
    <rect
       style="opacity:1;fill:#721c22;fill-opacity:1;fill-rule:evenodd;stroke:#000000;stroke-width:0.97904515;stroke-linejoin:round;stroke-miterlimit:4;stroke-dasharray:none;stroke-dashoffset:0;stroke-opacity:1"
       id="rect3363"
       width="99.020958"
       height="59.020954"
       x="100.48952"
       y="932.85168"
       clip-path="none"
       inkscape:export-filename="C:\wamp\www\doomavideo\images\tabs.gif"
       inkscape:export-xdpi="90"
       inkscape:export-ydpi="90" />
    <text
       xml:space="preserve"
       style="font-size:11.99998188px;font-style:normal;font-weight:normal;line-height:125%;fill:#000000;fill-opacity:1;stroke:none;stroke-width:1px;stroke-linecap:butt;stroke-linejoin:miter;stroke-opacity:1;font-family:Bitstream Vera Sans"
       x="103.2189"
       y="968.15173"
       id="text3365"
       sodipodi:linespacing="125%"
       transform="scale(0.9999985,1.0000015)"
       clip-path="none"
       inkscape:export-filename="C:\wamp\www\doomavideo\images\tabs.gif"
       inkscape:export-xdpi="90"
       inkscape:export-ydpi="90"><tspan
         sodipodi:role="line"
         id="tspan3367"
         x="103.2189"
         y="968.15173"
         style="font-size:20px;font-style:normal;font-variant:normal;font-weight:normal;font-stretch:normal;text-align:start;line-height:125%;writing-mode:lr-tb;text-anchor:start;fill:#ffffff;font-family:Arial">categories</tspan></text>
  </g>
</svg>
